# xmcd
#
# Track frame offsets: 
#        150
#        13248
#        24154
#        36963
#        51193
#        62848
#        74519
#        86639
#        98721
#        111544
#        123448
#        136870
#        149777
#        161707
#        176092
#        189682
#        204179
#        216861
#        230548
#        242476
#
# Disc length: 3417 seconds
#
# Revision: 0
# Processed by: cddbd v1.5.1PL2 Copyright (c) Steve Scherf et al.
# Submitted via: ExactAudioCopy v0.95a5
#
DISCID=2b0d5714
DTITLE=Various Artist - Living The Blues
DYEAR=1900
DGENRE=Blues
TTITLE0=I'm Your Hoochie Coochie Man - Muddy Waters
TTITLE1=Hound Dog - Willie Mae "Big Mama" Thornton
TTITLE2=Back Door Man - Howlin' Wolf
TTITLE3=Baby What You Want Me To Do - Jimmy Reed
TTITLE4=The Sky Is Crying - Elmore James
TTITLE5=Five Long Years - Eddie Boyd
TTITLE6=Boogie Chillun - John Lee Hooker
TTITLE7=Next Time You See Me - Little Junior Parker
TTITLE8=Baby Scratch My Back - Slim Harpo
TTITLE9=So Many Roads, So Many Trains - Otis Rush
TTITLE10=Rock Me Baby - B.B. King
TTITLE11=You're So Fine - Little Walter
TTITLE12=I'm A Man - Bo Diddley
TTITLE13=Don't Start Me Talkin' - Sonny Boy Williamson
TTITLE14=The Things That I Used To Do - Guitar Slim
TTITLE15=Reconsider Baby - Lowell Fulson
TTITLE16=Turn On Your Lovelight - Bobby Bland
TTITLE17=Grits Ain't Groceries - Little Milton
TTITLE18=Crosscut Saw - Albert King
TTITLE19=I'd Rather Go Blind - Etta James
EXTD=
EXTT0=
EXTT1=
EXTT2=
EXTT3=
EXTT4=
EXTT5=
EXTT6=
EXTT7=
EXTT8=
EXTT9=
EXTT10=
EXTT11=
EXTT12=
EXTT13=
EXTT14=
EXTT15=
EXTT16=
EXTT17=
EXTT18=
EXTT19=
PLAYORDER=
